# xmcd
# 
# Track frame offsets:
#     150
#     21584
#     46976
#     96586
#     122940
#     194269
#     240237
# 
# Disc length: 3859
# 
# Revision: 0
# Processed by: cddbd v1.5.2PL0 Copyright (c) Steve Scherf et al.
# Submitted via: fre:ac v1.0.17
# 
DISCID=5e0f1107
DTITLE=David Solomons - Gelesen von Martin Baltscheit - Mein Bruder ist ein Superheld - CD3
DYEAR=2015
DGENRE=Other
TTITLE0=Zwei Stunden - Tendenz abnehmend
TTITLE1=Superman gegen Batman
TTITLE2=Entstehungsgeschichten
TTITLE3=Geheimwaffe
TTITLE4=Die Quintessenz
TTITLE5=Die dunkelste Stunde
TTITLE6=So ein richtig kosmisches Ding
EXTD=
EXTT0=
EXTT1=
EXTT2=
EXTT3=
EXTT4=
EXTT5=
EXTT6=
PLAYORDER=
